<?xml version="1.0" standalone="no"?>
<!DOCTYPE svg PUBLIC "-//W3C//DTD SVG 20010904//EN"
 "http://www.w3.org/TR/2001/REC-SVG-20010904/DTD/svg10.dtd">
<svg version="1.0" xmlns="http://www.w3.org/2000/svg"
 width="117.000000pt" height="128.000000pt" viewBox="0 0 117.000000 128.000000"
 preserveAspectRatio="xMidYMid meet">
<metadata>
Created by potrace 1.16, written by Peter Selinger 2001-2019
</metadata>
<g transform="translate(0.000000,128.000000) scale(0.100000,-0.100000)"
fill="#000000" stroke="none">
<path d="M520 828 c-73 -50 -80 -116 -20 -206 22 -33 40 -69 40 -81 0 -20 4
-22 53 -19 44 3 52 6 49 21 -2 10 15 45 37 79 54 80 56 131 8 184 -28 30 -42
37 -83 41 -40 4 -55 0 -84 -19z m115 -12 c36 -15 65 -59 65 -98 0 -13 -18 -50
-40 -83 -22 -33 -40 -66 -40 -72 0 -8 -13 -13 -30 -13 -19 0 -30 5 -30 14 0 8
-15 36 -34 63 -18 26 -36 59 -40 71 -11 35 11 88 47 111 38 25 56 26 102 7z"/>
</g>
</svg>
