<?xml version="1.0" standalone="no"?>
<!DOCTYPE svg PUBLIC "-//W3C//DTD SVG 20010904//EN"
 "http://www.w3.org/TR/2001/REC-SVG-20010904/DTD/svg10.dtd">
<svg version="1.0" xmlns="http://www.w3.org/2000/svg"
 width="75.000000pt" height="85.000000pt" viewBox="0 0 75.000000 85.000000"
 preserveAspectRatio="xMidYMid meet">
<metadata>
Created by potrace 1.16, written by Peter Selinger 2001-2019
</metadata>
<g transform="translate(0.000000,85.000000) scale(0.100000,-0.100000)"
fill="#000000" stroke="none">
<path d="M252 508 c-30 -30 1 -136 59 -202 46 -52 128 -96 183 -98 47 -2 57
12 54 77 -3 48 -4 50 -41 62 -30 10 -42 10 -57 0 -17 -10 -24 -7 -52 20 -26
27 -29 34 -19 47 15 18 6 69 -16 91 -17 18 -94 20 -111 3z m97 -40 c7 -18 5
-27 -10 -38 -19 -15 -19 -16 6 -52 14 -21 42 -49 62 -63 34 -22 38 -23 54 -9
29 26 54 14 57 -29 3 -35 1 -37 -25 -37 -96 1 -223 133 -223 232 0 29 68 25
79 -4z"/>
</g>
</svg>
